# xmcd CD database file
#
# Track frame offsets:
#	150
#	13354
#	42310
#
# Disc length: 782 seconds
#
# Revision: 1
# Processed by: cddbd v1.5.2PL0 Copyright (c) Steve Scherf et al.
# Submitted via: CDex 1.51
#
DISCID=21030c03
DTITLE=Kick la Luna - Die Rose
DYEAR=2000
DGENRE=
TTITLE0=Die Rose (Radio Edit)
TTITLE1=Die Rose (Long Version)
TTITLE2=Fell in love with a boy (Accoustic version)
EXTD=YEAR: 2000
EXTT0=
EXTT1=
EXTT2=
PLAYORDER=
